<?xml version="1.0" standalone="no"?>
<!DOCTYPE svg PUBLIC "-//W3C//DTD SVG 20010904//EN"
 "http://www.w3.org/TR/2001/REC-SVG-20010904/DTD/svg10.dtd">
<svg version="1.0" xmlns="http://www.w3.org/2000/svg"
 width="2541.000000pt" height="687.000000pt" viewBox="0 0 2541.000000 687.000000"
 preserveAspectRatio="xMidYMid meet">

<g transform="translate(0.000000,687.000000) scale(0.100000,-0.100000)"
fill="#000000" stroke="none">
<path d="M9473 6811 c-33 -18 -53 -25 -56 -17 -3 8 -8 7 -20 -2 -10 -8 -28
-11 -49 -7 -42 7 -174 -26 -247 -63 -80 -40 -149 -113 -205 -217 -27 -49 -68
-121 -91 -160 -92 -152 -126 -243 -126 -337 0 -87 -16 -58 -22 40 -14 225 -73
353 -199 425 -40 24 -145 60 -164 56 -5 -1 -11 -1 -14 0 -47 18 -365 19 -430
2 -25 -7 -54 -16 -65 -21 -57 -25 -104 -32 -250 -40 -180 -11 -273 -32 -376
-86 -19 -10 -54 -19 -79 -21 -124 -8 -192 -31 -373 -127 -181 -96 -331 -140
-527 -156 -146 -12 -145 -12 -270 -73 -127 -62 -209 -138 -257 -237 -50 -103
-56 -145 -60 -408 -4 -203 -2 -250 12 -291 16 -51 59 -98 112 -125 63 -32 240
-14 332 33 40 21 43 21 37 4 -41 -102 -64 -304 -71 -628 -8 -327 -16 -506 -25
-558 -24 -133 -16 -227 26 -307 55 -107 79 -120 235 -124 99 -2 133 -7 169
-23 25 -12 58 -24 75 -28 16 -4 62 -22 101 -41 39 -19 80 -34 91 -34 41 0 32
-27 -20 -61 -46 -30 -59 -33 -136 -36 -103 -3 -170 -17 -232 -49 -81 -41 -194
-57 -360 -50 -157 6 -263 24 -345 57 -60 24 -59 22 -63 164 -1 55 -6 126 -12
158 -7 40 -7 83 1 140 20 154 29 232 35 312 9 110 33 301 45 350 6 22 17 90
26 150 41 290 44 377 14 443 -53 116 -82 381 -78 693 l3 247 -31 38 c-37 47
-73 66 -135 72 -101 10 -194 -32 -289 -128 -59 -61 -119 -159 -136 -223 -15
-58 -17 -169 -4 -237 34 -179 34 -176 21 -236 -7 -33 -19 -79 -27 -104 -7 -25
-18 -74 -23 -110 -23 -153 -21 -154 -83 35 -31 94 -66 202 -77 240 -34 118
-60 186 -114 295 -84 172 -148 218 -328 235 -111 11 -315 -17 -363 -49 -14 -9
-43 -16 -65 -16 -50 0 -194 -51 -367 -131 -23 -11 -45 -19 -49 -19 -5 0 -16
-6 -24 -13 -17 -14 -140 -55 -341 -112 -69 -20 -133 -40 -142 -46 -10 -5 -28
-9 -40 -9 -13 -1 -41 -8 -63 -16 -22 -9 -77 -24 -122 -35 -169 -39 -220 -72
-309 -196 -25 -34 -57 -96 -72 -137 -15 -41 -31 -79 -36 -83 -4 -4 -5 29 -1
74 7 72 5 85 -13 115 -33 53 -63 75 -126 93 -80 23 -144 16 -246 -28 -76 -34
-92 -37 -170 -36 -58 0 -104 -6 -145 -19 -40 -12 -85 -18 -135 -17 -87 2 -158
-14 -196 -44 -15 -12 -32 -21 -38 -21 -10 0 -92 -66 -163 -131 -17 -16 -64
-54 -105 -84 -105 -80 -241 -207 -291 -273 -96 -124 -127 -208 -141 -382 -10
-111 -25 -170 -56 -220 -58 -93 -90 -177 -90 -238 0 -61 32 -198 49 -215 6 -6
11 -18 11 -27 0 -8 11 -28 25 -44 32 -38 32 -65 -5 -211 -27 -106 -31 -139
-33 -285 -3 -255 16 -316 130 -424 34 -32 222 -123 275 -134 56 -11 83 -9 208
14 52 10 140 17 195 17 94 0 105 -2 175 -35 l75 -36 130 5 c72 3 135 5 140 4
31 -1 124 0 145 2 29 3 118 45 141 67 9 8 37 34 62 57 25 23 58 68 74 100 24
50 28 70 27 138 0 44 -4 114 -9 156 l-8 76 54 117 c30 64 55 112 57 107 7 -21
-29 -349 -43 -386 -20 -56 -18 -109 5 -155 28 -55 54 -70 120 -70 97 0 215 54
331 152 l51 43 101 -1 c56 0 194 -2 307 -4 227 -5 193 -11 390 73 109 45 135
65 197 144 38 48 54 91 93 252 72 299 76 328 57 407 -10 38 -25 80 -35 94 -23
32 -97 70 -138 70 -76 0 -252 -58 -454 -150 -190 -86 -229 -101 -279 -107 -48
-5 -51 -4 -61 21 -15 39 -12 83 6 111 18 28 124 91 204 122 37 14 90 24 159
28 87 5 109 10 144 32 54 34 68 49 102 108 16 28 47 77 70 110 96 139 150 267
138 327 -16 79 -75 136 -152 145 -50 6 -136 -10 -182 -33 -47 -23 -262 -85
-344 -99 -62 -10 -86 -11 -104 -2 -42 21 -46 37 -26 123 15 66 24 84 54 113
86 80 95 84 179 82 42 -1 118 6 167 15 103 19 385 27 385 11 0 -6 8 -3 18 6
10 10 26 17 35 17 24 0 55 55 63 110 6 43 21 100 49 185 8 22 24 75 36 118 26
93 46 99 66 22 37 -145 41 -682 5 -728 -5 -7 -21 -43 -36 -80 -38 -97 -50
-236 -41 -487 11 -337 10 -408 -4 -560 -31 -321 -17 -468 52 -546 76 -88 176
-85 267 7 24 24 52 48 62 54 11 5 80 42 155 80 108 56 145 81 189 127 93 100
106 144 113 388 l2 55 25 -30 c14 -16 42 -63 61 -103 l36 -72 -11 -115 -10
-115 -69 -78 c-38 -42 -90 -104 -115 -137 -75 -98 -160 -135 -438 -186 -139
-25 -491 -36 -700 -20 -104 7 -208 8 -315 2 -445 -26 -787 -145 -1196 -417
-219 -145 -391 -234 -724 -374 -273 -115 -490 -184 -699 -222 -117 -21 -163
-67 -191 -194 -13 -57 -16 -111 -13 -213 3 -131 4 -138 33 -184 17 -26 35 -45
42 -43 6 3 19 -4 29 -15 9 -10 24 -19 31 -19 8 0 23 -10 33 -22 l19 -23 16 23
c18 24 44 29 63 10 9 -9 18 -8 39 2 16 7 32 13 37 11 4 -1 14 3 21 9 12 10 42
19 75 23 8 1 24 10 35 20 11 10 41 32 67 48 26 15 60 46 75 67 28 39 78 62
136 62 12 0 36 9 52 20 17 11 38 20 47 20 9 0 28 11 42 25 14 14 29 25 34 25
5 0 9 -29 10 -64 1 -35 5 -73 9 -83 13 -32 89 -113 107 -113 9 0 33 -9 53 -20
23 -12 39 -16 43 -9 4 5 14 7 23 3 10 -3 17 -1 17 5 0 6 11 11 25 11 14 0 25
5 25 10 0 6 8 10 18 10 9 0 36 17 59 38 23 20 56 48 73 61 18 13 43 40 56 60
36 52 73 103 89 123 8 10 23 35 34 57 12 22 25 42 31 46 5 3 10 14 10 24 0 24
52 48 190 90 276 84 327 107 403 179 34 32 96 86 137 119 85 68 124 80 205 63
232 -49 357 -71 392 -71 13 1 47 -5 75 -13 52 -13 98 -13 168 -1 44 8 258 101
285 124 31 27 76 53 81 48 3 -3 -15 -33 -39 -68 -82 -117 -85 -241 -11 -328
47 -55 91 -72 194 -78 108 -6 430 20 534 43 54 12 81 14 84 6 2 -7 12 -6 30 4
15 8 33 14 40 14 7 0 20 4 30 9 21 11 178 61 191 61 5 0 40 14 78 31 37 17 70
30 73 30 3 0 12 6 20 13 28 24 143 77 156 72 7 -3 17 1 23 8 6 7 28 13 48 14
21 1 53 6 72 12 19 5 37 7 42 5 8 -5 87 12 209 44 41 12 85 21 97 21 12 0 24
4 27 9 3 4 23 11 44 14 22 2 56 13 76 22 20 10 40 15 43 11 3 -3 11 -2 17 3 6
5 44 18 83 30 40 13 75 27 78 31 3 5 12 7 21 3 8 -3 31 6 52 19 20 14 55 31
77 38 22 7 56 21 75 31 19 11 64 30 100 43 109 40 134 51 147 63 7 6 39 24 70
38 167 78 209 103 295 171 51 41 133 96 181 122 108 57 153 103 162 166 8 54
-19 113 -49 108 -10 -2 -25 5 -34 16 -9 10 -39 31 -66 45 -52 28 -66 28 -160
1 -27 -8 -52 -12 -54 -9 -9 8 126 65 181 76 29 6 86 19 127 29 41 10 125 26
185 35 263 39 272 42 324 97 16 18 41 55 56 83 19 39 38 58 78 82 83 50 129
60 244 56 57 -2 119 1 140 6 55 16 62 -1 19 -50 -79 -92 -97 -172 -72 -317 9
-50 16 -105 16 -120 0 -15 4 -32 10 -38 11 -11 -2 -147 -24 -246 -79 -356 -96
-544 -90 -1003 l4 -320 -26 -89 c-31 -104 -28 -153 13 -234 25 -49 97 -112
127 -112 43 1 215 54 277 84 41 21 135 58 209 82 74 25 137 50 141 55 3 6 12
9 20 7 15 -3 108 29 123 43 6 5 16 9 23 9 7 0 33 9 58 21 35 17 67 21 157 23
62 2 122 -1 133 -5 42 -17 275 -40 308 -30 94 28 113 35 154 63 46 31 103 100
103 125 0 7 4 13 9 13 5 0 12 75 15 168 7 174 24 308 56 428 46 178 35 297
-34 370 -42 43 -81 60 -167 71 -46 5 -46 6 -58 57 -11 45 -10 57 9 106 38 97
44 134 24 175 -30 64 -108 100 -191 90 -26 -4 -138 -7 -248 -8 l-200 -2 -69
-32 c-37 -18 -70 -33 -73 -33 -8 0 8 74 18 87 19 23 253 74 449 98 30 4 91 16
135 27 44 11 98 24 120 28 82 18 203 73 212 98 3 6 10 12 16 12 17 0 79 72 98
115 19 43 59 210 80 335 6 41 23 102 37 135 28 70 26 135 -8 190 -44 72 -227
127 -350 106 -37 -6 -104 -34 -195 -81 -77 -40 -185 -96 -241 -125 -110 -56
-200 -83 -303 -91 l-66 -4 63 18 c80 24 142 57 217 114 34 26 107 66 163 91
108 48 310 164 377 217 98 77 94 178 -9 229 -86 43 -164 38 -274 -18 -21 -10
-71 -29 -112 -41 -41 -13 -120 -45 -175 -73 -126 -62 -184 -80 -244 -73 -125
15 -160 15 -207 1 -73 -22 -75 -21 -57 23 20 48 12 145 -17 201 -32 63 -136
168 -200 202 -51 27 -61 37 -79 82 -11 29 -30 99 -41 157 -12 58 -28 125 -37
150 -26 71 -133 239 -156 246 -18 6 -19 8 -6 18 9 6 21 20 28 31 11 19 12 18
6 -5 -5 -23 -4 -23 7 -6 7 10 30 37 50 59 20 22 35 44 32 49 -6 10 34 78 46
78 4 0 28 42 53 93 43 87 55 127 77 257 7 42 8 24 4 -75 -5 -139 -29 -371 -45
-445 -33 -148 11 -417 91 -550 56 -95 181 -208 330 -299 30 -19 66 -41 80 -50
68 -43 232 -61 267 -28 11 10 35 17 56 17 46 0 239 50 331 86 96 38 181 106
217 174 18 34 64 88 122 145 82 78 98 100 126 165 17 41 42 98 56 125 13 28
26 68 29 90 4 22 11 72 17 110 5 39 10 110 10 159 0 48 3 85 7 81 4 -4 7 -10
8 -13 10 -76 18 -112 24 -112 11 0 20 27 19 53 0 12 -3 16 -6 9 -8 -20 -23 -3
-23 28 0 37 -10 61 -22 54 -6 -4 -7 8 -4 30 3 20 3 36 -2 36 -4 0 -7 42 -7 94
-1 62 -5 99 -14 110 -7 8 -15 41 -18 74 -5 57 -5 58 36 102 23 25 44 56 47 70
3 14 12 47 20 74 7 26 14 60 14 75 0 39 -29 119 -62 171 -25 39 -29 52 -24
100 10 120 -93 329 -192 387 -52 31 -150 52 -241 53 -97 0 -136 16 -190 77
-86 96 -156 114 -248 64z m-806 -893 c-3 -8 -6 -5 -6 6 -1 11 2 17 5 13 3 -3
4 -12 1 -19z m-1511 -45 c-13 -45 -57 -292 -74 -418 -22 -164 -21 -344 2 -485
8 -52 13 -115 10 -140 -2 -25 -6 -65 -8 -90 -6 -60 -13 -92 -41 -170 -52 -147
-68 -208 -71 -265 -2 -33 -6 -90 -9 -128 -8 -90 8 -114 107 -151 105 -41 419
-199 508 -256 81 -52 133 -61 190 -32 62 31 89 136 56 216 -8 19 -17 65 -21
103 -4 37 -17 111 -30 163 -13 52 -26 127 -29 165 -4 39 -9 93 -12 120 -3 28
-7 112 -7 188 -2 116 0 137 13 137 8 0 20 -4 26 -8 23 -14 54 -149 69 -302 20
-191 18 -184 73 -300 51 -107 102 -191 135 -223 13 -12 44 -48 71 -79 26 -32
72 -73 101 -93 70 -46 74 -55 28 -57 -141 -5 -412 -58 -426 -83 -4 -8 -17 -15
-28 -15 -23 0 -57 -22 -143 -93 -32 -27 -71 -53 -85 -59 -108 -43 -234 -86
-356 -122 -27 -8 -91 -19 -141 -24 -81 -9 -128 -23 -209 -64 -13 -7 -7 3 15
28 19 21 41 44 47 51 21 24 35 94 28 147 -9 73 -26 157 -35 175 -21 40 -74
191 -122 346 -44 146 -52 181 -51 250 0 44 1 195 2 335 3 258 2 270 -41 480
-6 30 -14 80 -17 112 l-7 56 40 26 c23 15 55 26 76 27 47 1 75 4 135 17 105
22 135 106 171 469 5 53 6 53 57 62 5 0 6 -7 3 -16z m2367 -52 c47 -53 80
-126 93 -211 3 -25 10 -50 15 -56 14 -18 23 -85 23 -179 0 -69 -5 -107 -23
-160 -34 -101 -112 -248 -125 -234 -2 2 -18 45 -36 94 -18 50 -49 126 -70 170
-48 103 -65 178 -64 290 0 132 17 192 76 264 27 34 55 61 62 61 8 0 30 -18 49
-39z m-1686 -106 c27 -16 45 -35 48 -50 3 -14 7 -36 10 -50 8 -35 -29 -70 -96
-89 -29 -9 -58 -16 -65 -16 -14 0 -11 27 6 60 6 12 9 29 5 37 -3 9 -3 43 1 75
8 69 21 73 91 33z m-5550 -1347 c2 -115 0 -127 -28 -190 -48 -111 -37 -182 46
-273 20 -22 38 -49 40 -60 5 -22 16 -330 19 -492 l1 -102 -21 20 c-31 29 -78
39 -192 39 -151 0 -215 -22 -312 -107 -14 -12 -50 -35 -80 -50 -42 -22 -68
-46 -109 -101 -49 -65 -60 -74 -106 -88 -62 -17 -88 -10 -147 40 -37 32 -73
85 -99 146 -6 14 -17 39 -24 55 -26 59 -39 121 -38 185 0 71 25 215 44 263 10
23 10 30 -1 37 -11 7 -10 11 3 25 10 9 17 19 17 23 0 4 7 81 14 171 14 156 16
168 51 236 33 66 114 165 134 165 5 0 33 -27 61 -60 58 -67 124 -117 173 -131
41 -12 146 12 237 54 51 24 87 52 170 136 58 58 114 123 125 144 11 20 20 37
20 37 1 0 2 -55 2 -122z m4196 -1658 c13 0 17 -6 15 -22 -2 -18 -13 -25 -58
-35 -30 -7 -63 -11 -74 -9 -10 3 -39 -2 -63 -10 -25 -9 -48 -13 -51 -10 -8 8
46 59 83 79 21 12 45 15 80 12 28 -2 58 -4 68 -5z m-943 -449 c0 -22 3 -47 7
-57 6 -15 -1 -16 -83 -10 -99 8 -143 -3 -261 -63 -62 -31 -63 -31 -224 -31
-210 0 -222 -3 -522 -139 -33 -16 -79 -24 -155 -30 -59 -4 -108 -7 -109 -7 -4
3 87 46 162 76 104 42 177 63 305 90 58 12 143 30 190 41 47 10 144 30 215 44
107 21 236 57 415 115 52 17 60 13 60 -29z m3980 -398 c3 -3 -1 -8 -8 -10 -7
-3 -45 -29 -85 -59 -99 -75 -218 -144 -263 -151 l-37 -6 6 33 c4 18 7 57 7 86
0 67 13 77 136 103 83 18 229 20 244 4z"/>
<path d="M7560 3720 c0 -5 9 -10 21 -10 11 0 17 5 14 10 -3 6 -13 10 -21 10
-8 0 -14 -4 -14 -10z"/>
<path d="M23270 5949 c-30 -11 -77 -22 -103 -25 -26 -3 -67 -14 -92 -25 -46
-21 -133 -102 -156 -147 -7 -15 -23 -40 -35 -57 -11 -16 -43 -75 -69 -130 -54
-112 -51 -105 -100 -195 -85 -153 -113 -210 -140 -290 -45 -135 -47 -140 -67
-165 l-19 -24 -81 84 c-96 101 -150 172 -179 234 -25 56 -75 158 -93 188 -7
12 -26 33 -42 45 -16 12 -37 30 -46 39 -36 32 -166 87 -258 109 -52 12 -129
30 -170 41 -164 41 -294 60 -417 60 -68 0 -133 -3 -145 -5 -13 -3 -49 -8 -80
-10 -80 -7 -107 -24 -182 -113 -85 -101 -122 -177 -131 -270 -7 -71 -8 -74
-60 -127 l-53 -53 2 37 c1 20 -1 93 -5 161 -7 139 -22 181 -81 229 -72 58
-199 77 -335 50 -126 -24 -184 -65 -350 -250 -170 -188 -184 -234 -164 -550 7
-108 16 -226 21 -261 9 -66 13 -179 9 -259 -1 -25 -5 7 -9 70 -8 123 -32 259
-57 318 -8 20 -25 60 -38 87 -12 28 -25 57 -29 65 -57 136 -245 301 -418 368
-307 117 -521 175 -659 176 -54 1 -92 4 -85 8 8 6 8 8 -1 8 -6 0 -14 -4 -17
-9 -3 -5 -26 -12 -50 -15 -75 -12 -154 -74 -217 -170 -26 -40 -39 -53 -39 -39
0 56 -96 193 -140 200 -8 2 -49 9 -90 17 -41 8 -97 12 -125 9 -84 -9 -242
-103 -325 -193 -113 -121 -198 -233 -236 -310 -60 -121 -138 -347 -164 -476
-25 -124 -48 -209 -50 -179 -1 34 -29 227 -39 275 -5 25 -7 48 -5 51 6 11 -44
258 -66 321 -11 33 -35 78 -53 99 -38 46 -140 96 -212 104 -27 3 -79 9 -115
13 -92 10 -234 -3 -305 -28 -79 -29 -126 -68 -161 -135 -24 -45 -33 -55 -49
-51 -11 3 -55 9 -97 12 -81 7 -162 -2 -323 -37 -49 -10 -166 -34 -260 -53 -93
-20 -224 -47 -290 -61 -160 -36 -266 -57 -290 -59 -11 0 -25 -4 -30 -8 -6 -4
-42 -18 -80 -33 -39 -14 -88 -37 -111 -50 -23 -13 -44 -21 -48 -18 -3 3 -6 1
-6 -5 0 -6 -19 -32 -42 -57 -24 -26 -53 -65 -65 -88 -19 -37 -22 -39 -23 -17
-1 32 -32 99 -59 127 -12 12 -20 28 -19 34 2 6 -6 13 -17 14 -11 1 -40 10 -64
19 -24 9 -56 16 -72 16 -16 0 -29 3 -29 8 0 8 -81 6 -117 -3 -13 -3 -23 -1
-23 5 0 5 -7 10 -15 10 -8 0 -15 -4 -15 -10 0 -5 -7 -7 -15 -4 -8 4 -21 1 -28
-4 -17 -14 -194 -14 -203 -1 -3 6 -13 8 -22 4 -8 -3 -19 0 -23 7 -6 9 -11 9
-23 -1 -11 -9 -32 -12 -63 -8 -28 3 -62 -1 -87 -9 -26 -10 -42 -11 -44 -4 -2
5 -10 3 -19 -6 -9 -8 -24 -13 -34 -11 -10 3 -23 -1 -30 -9 -6 -8 -19 -14 -29
-14 -10 0 -36 -7 -59 -15 -40 -14 -41 -13 -31 5 14 27 12 40 -6 33 -8 -3 -13
-11 -11 -17 3 -6 -8 -12 -24 -13 -69 -4 -79 -6 -78 -17 3 -24 -1 -37 -11 -31
-5 3 -19 0 -30 -7 -18 -11 -23 -10 -31 5 -14 24 -65 22 -81 -2 -9 -15 -16 -17
-29 -10 -12 6 -19 4 -23 -6 -5 -14 -99 -67 -113 -63 -26 6 -146 -76 -237 -161
-113 -106 -148 -146 -173 -199 -22 -47 -24 -61 -18 -122 7 -70 7 -70 -39 -150
-46 -79 -47 -82 -52 -188 -5 -102 -20 -199 -49 -307 -7 -27 -21 -84 -30 -125
-10 -41 -30 -100 -45 -130 -15 -30 -37 -86 -50 -123 -20 -62 -22 -81 -16 -200
7 -152 19 -263 31 -292 5 -11 42 -53 82 -94 40 -40 73 -77 73 -82 0 -4 10 -14
23 -20 20 -11 38 -25 87 -71 10 -9 42 -33 72 -53 29 -20 82 -56 118 -81 35
-24 72 -44 82 -44 10 0 18 -4 18 -10 0 -5 6 -10 13 -10 7 0 30 -23 52 -51 21
-28 49 -55 62 -60 13 -5 23 -14 23 -21 0 -21 58 -53 162 -92 92 -34 106 -36
290 -47 106 -6 224 -8 262 -4 78 7 86 -10 8 -20 -26 -3 -90 -12 -142 -20 -52
-9 -147 -20 -211 -25 -180 -15 -341 -46 -494 -95 -165 -52 -393 -112 -450
-118 -22 -3 -80 -10 -130 -15 -150 -19 -350 -32 -550 -38 -203 -5 -302 -16
-344 -39 -14 -7 -49 -33 -77 -58 l-52 -44 -138 -6 c-165 -7 -271 -30 -373 -81
-40 -21 -112 -45 -160 -56 -105 -22 -178 -62 -281 -155 -40 -36 -114 -94 -164
-129 -54 -37 -111 -87 -139 -122 -217 -265 -279 -403 -209 -464 22 -20 37 -24
84 -23 31 0 84 10 117 22 34 12 67 21 74 21 7 0 23 9 34 20 31 28 86 60 104
60 9 0 22 7 29 15 7 8 20 15 29 15 9 0 22 9 29 21 8 12 19 18 28 15 8 -3 14
-1 14 4 0 6 6 10 13 10 8 0 41 18 74 39 33 21 75 42 94 46 45 10 115 41 123
54 4 6 15 11 24 11 9 0 30 7 46 15 15 8 34 15 41 15 7 0 15 6 18 14 4 9 29 17
69 21 35 4 69 12 76 17 6 6 47 12 90 14 42 2 116 5 163 8 47 2 96 9 108 15 17
10 26 10 37 0 12 -10 21 -9 45 5 16 9 34 14 39 11 6 -4 16 -2 23 3 7 5 28 13
47 17 19 4 46 14 60 23 14 9 48 18 75 19 94 6 160 14 195 25 79 25 430 -3 430
-34 0 -4 13 -8 29 -8 17 0 33 -5 36 -10 4 -6 15 -10 24 -8 10 2 25 -3 34 -10
9 -8 48 -15 92 -17 41 -2 81 -7 87 -11 7 -4 14 -2 16 4 2 7 22 12 46 12 23 0
46 4 52 9 5 5 25 14 46 20 20 7 39 18 42 26 3 8 17 15 30 15 14 0 29 6 33 13
4 7 29 25 56 40 26 16 47 34 47 42 0 8 8 15 18 15 10 0 28 11 40 25 12 14 25
25 29 25 5 1 24 24 43 52 66 96 110 137 186 173 40 19 80 35 89 35 8 0 46 11
84 24 94 33 360 70 335 47 -5 -5 -54 -28 -108 -52 -67 -29 -116 -58 -150 -90
l-51 -47 0 -82 0 -82 40 -34 c22 -18 49 -33 60 -33 11 1 43 -3 70 -8 62 -11
176 -10 195 2 8 5 26 8 40 7 14 -2 39 3 55 9 17 7 46 14 65 15 60 5 85 9 95
15 6 4 44 10 85 14 41 3 120 17 175 31 55 13 110 24 122 24 12 0 25 5 28 10 4
6 12 10 18 9 19 -4 110 12 140 23 15 6 58 12 95 14 37 1 100 10 140 18 69 16
96 24 182 57 19 8 73 42 120 76 97 70 109 81 130 111 8 12 22 22 32 22 9 0 21
6 25 12 9 15 41 36 66 44 9 4 17 10 17 14 0 14 42 19 61 7 15 -9 24 -9 39 1
12 7 25 10 31 6 6 -3 86 -6 177 -6 224 -1 448 31 494 70 9 8 39 17 65 19 26 3
55 11 63 17 18 14 131 69 145 71 10 1 29 8 70 25 11 5 38 12 60 15 68 11 246
75 320 115 94 50 148 80 160 90 6 5 35 15 65 24 30 8 80 24 110 35 30 11 65
20 77 21 12 0 32 4 45 9 83 31 141 42 288 51 91 6 201 15 245 20 44 5 154 14
245 20 91 6 202 15 247 19 55 5 80 4 73 -3 -17 -17 -11 -28 13 -20 40 12 14
-3 -53 -31 -36 -15 -96 -42 -135 -60 -150 -70 -222 -79 -391 -49 -50 9 -111
13 -138 10 -54 -6 -136 -42 -206 -91 -53 -37 -222 -120 -265 -130 -16 -3 -118
-1 -226 6 l-196 13 -68 -25 c-58 -20 -74 -31 -100 -67 -28 -41 -30 -49 -30
-135 0 -80 3 -96 23 -124 47 -67 141 -96 202 -63 12 7 32 13 44 15 11 1 39 5
61 9 48 8 204 25 299 32 96 8 179 28 256 61 l65 28 235 0 c167 1 244 4 265 13
43 19 95 55 95 68 0 22 67 71 115 83 28 7 91 14 140 15 50 1 96 5 102 9 6 4
13 3 15 -1 1 -5 59 -5 128 -1 137 9 193 1 210 -31 6 -11 15 -20 20 -20 4 0 21
-13 37 -29 23 -23 41 -29 95 -35 90 -10 136 0 173 39 59 62 83 67 365 79 31 1
77 12 104 24 27 12 54 22 60 22 7 0 22 11 34 25 12 14 26 25 32 25 6 0 15 20
22 45 10 36 16 44 29 40 19 -7 37 19 45 63 3 15 9 29 13 32 4 3 10 13 14 23 3
9 11 17 17 17 14 0 13 -13 -2 -28 -10 -10 -10 -15 1 -21 11 -7 11 -10 -2 -17
-9 -5 -31 -35 -50 -67 -42 -70 -53 -141 -37 -242 13 -84 33 -108 123 -153 58
-29 78 -33 174 -32 12 0 27 9 33 20 6 11 18 20 27 20 9 0 25 7 34 16 14 13 53
18 176 25 87 5 185 13 218 18 106 17 180 33 190 40 17 13 139 43 330 81 22 5
67 15 99 23 33 8 64 13 71 11 6 -3 22 5 35 16 13 11 35 23 49 27 25 6 117 51
190 92 67 39 90 72 121 177 7 22 31 62 54 87 l41 46 96 1 c53 0 129 7 170 14
155 29 229 46 285 65 81 27 171 52 203 56 14 1 45 8 67 14 24 6 166 13 330 16
159 2 318 9 354 15 122 19 285 42 325 46 43 3 163 35 245 65 55 19 161 73 172
86 6 7 15 13 20 13 14 0 79 49 105 79 13 14 23 38 23 54 0 22 4 27 26 27 41 0
128 28 161 53 16 12 50 40 76 63 52 46 72 100 64 175 -5 42 5 69 24 69 5 0 4
-11 -2 -24 -12 -26 -4 -116 10 -116 4 0 13 -11 19 -26 22 -47 68 -57 286 -61
130 -2 203 0 211 7 7 6 34 11 60 12 40 0 52 6 82 37 31 32 34 41 30 76 -10 94
-81 184 -146 186 -57 2 66 31 160 38 85 6 101 10 134 35 44 34 74 95 75 150 0
34 -6 46 -43 81 -35 33 -62 48 -133 70 -191 60 -359 39 -492 -63 -89 -68 -94
-194 -10 -238 24 -12 28 -18 17 -25 -8 -5 -27 -9 -42 -9 -15 0 -43 -6 -62 -14
-29 -13 -33 -13 -28 0 3 8 9 14 14 14 5 0 9 26 9 59 0 43 -7 71 -26 107 -29
56 -77 109 -114 129 -44 23 -157 28 -238 11 -40 -9 -79 -16 -85 -16 -13 0 60
70 73 70 4 0 20 11 36 25 16 14 32 25 35 25 4 0 9 9 12 20 3 11 13 23 24 26
10 4 26 14 36 22 9 8 17 12 17 8 0 -19 101 79 106 102 4 15 13 38 22 51 19 32
52 156 52 200 0 19 7 57 15 85 42 150 85 450 85 596 -1 132 -29 262 -75 340
-25 42 -42 80 -62 138 -13 39 -13 50 2 108 20 81 19 285 -1 345 -24 68 -99
159 -133 159 -19 0 -128 80 -171 125 -71 74 -167 102 -372 106 -121 2 -134 6
-183 53 -23 22 -56 49 -73 59 -40 23 -113 21 -182 -4z m343 -1140 c22 -11 39
-28 65 -61 11 -14 8 -24 -25 -70 -20 -29 -40 -55 -43 -58 -8 -8 -74 -112 -92
-145 -8 -16 -21 -54 -28 -84 -13 -55 -14 -73 -18 -218 -2 -80 -3 -82 -53 -157
-53 -78 -88 -101 -74 -48 15 63 21 217 8 243 -11 22 -10 43 9 133 22 105 22
107 3 139 -10 17 -36 48 -57 67 l-39 35 19 50 c12 33 25 51 37 54 11 2 29 13
40 25 84 86 188 126 248 95z m-5756 -71 c-68 -151 -89 -205 -106 -274 -15 -59
-20 -70 -20 -44 -1 46 63 238 102 306 34 58 48 66 24 12z m2631 -78 c1 -23 11
-60 22 -83 25 -50 40 -144 40 -248 0 -69 -4 -84 -42 -165 l-43 -89 0 -155 c0
-85 6 -194 14 -241 20 -124 10 -398 -18 -499 -39 -141 -21 -230 62 -315 40
-41 65 -57 112 -71 43 -14 53 -20 37 -22 -44 -7 -157 20 -207 48 l-50 28 -8
73 c-5 46 -3 162 5 304 18 317 11 401 -47 595 l-47 155 16 50 c9 28 23 93 31
145 8 52 20 115 25 140 5 25 14 74 20 110 5 36 19 99 30 140 11 41 23 90 27
108 8 44 19 40 21 -8z m1085 -302 c-6 -54 -37 -209 -61 -308 -15 -60 -20 -69
-25 -50 -4 14 -7 37 -7 51 0 29 -26 110 -38 119 -4 3 -20 25 -36 50 -23 35
-30 56 -29 95 0 113 23 220 58 276 6 8 30 27 55 42 l44 26 22 -129 c12 -71 19
-149 17 -172z m-8563 142 c0 -5 -4 -10 -10 -10 -5 0 -10 5 -10 10 0 6 5 10 10
10 6 0 10 -4 10 -10z m3044 -158 c18 -137 6 -319 -28 -422 -46 -142 -64 -219
-80 -358 -26 -211 -8 -450 44 -590 11 -29 20 -55 20 -59 0 -3 -18 16 -40 43
-22 28 -60 59 -87 73 -27 12 -56 27 -65 32 -23 12 -94 11 -139 -1 -40 -11
-107 -79 -149 -150 -14 -23 -53 -69 -88 -101 -70 -66 -90 -70 -208 -48 -79 16
-87 24 -80 76 12 88 61 135 193 185 65 24 210 115 247 154 13 14 29 45 36 68
8 22 17 45 22 51 4 5 8 20 8 33 0 14 8 30 17 37 13 10 15 16 6 26 -6 8 -11 42
-12 76 0 101 -42 177 -115 212 -25 11 -58 21 -73 21 -53 2 -375 -19 -395 -26
-33 -10 -90 5 -86 23 2 11 27 21 83 33 44 10 109 25 145 33 83 20 150 35 220
49 116 23 242 116 305 225 16 27 45 70 67 97 21 27 38 57 38 67 0 10 4 20 9
24 6 3 16 18 24 33 7 15 38 69 67 120 51 88 54 91 68 71 8 -11 19 -60 26 -107z
m2635 92 c22 -44 27 -204 8 -273 -8 -31 -22 -105 -31 -166 -9 -60 -23 -153
-31 -205 -8 -52 -20 -141 -26 -197 -19 -161 -27 -161 -79 0 -33 99 -33 102
-21 176 7 42 16 164 21 271 5 107 13 211 19 230 6 19 11 54 11 77 0 24 4 43 8
43 5 0 26 18 48 40 21 22 44 38 49 37 6 -2 17 -17 24 -33z m-967 -116 c-20
-92 -22 -183 -7 -315 18 -156 18 -150 3 -135 -14 14 -28 16 -28 4 0 -5 10 -14
23 -19 18 -9 31 -36 62 -129 l38 -118 -12 -90 c-7 -50 -19 -137 -26 -192 -7
-56 -15 -106 -18 -111 -3 -4 -10 -53 -16 -107 -9 -78 -19 -113 -46 -169 -19
-39 -35 -77 -35 -86 0 -8 -3 -11 -6 -8 -22 22 -36 365 -24 572 32 519 30 506
65 790 16 130 25 178 33 171 3 -3 0 -30 -6 -58z m-3572 -282 c-9 -25 -30 -242
-27 -281 3 -40 -15 -211 -28 -265 -21 -82 -36 -244 -40 -414 -3 -145 -16 -268
-34 -331 -5 -16 -15 -68 -22 -115 -7 -47 -18 -88 -23 -92 -8 -5 -7 -8 1 -8 12
0 12 -2 -8 -215 -17 -191 -54 -328 -108 -404 -32 -44 -99 -93 -127 -93 -35 0
-38 6 -20 39 17 31 38 79 86 198 18 44 37 85 41 91 11 13 43 113 68 209 11 39
33 119 51 180 57 195 40 308 -57 379 -58 42 -121 64 -199 70 -73 5 -134 -21
-223 -97 -59 -50 -285 -147 -367 -157 -83 -10 -199 3 -224 25 -23 20 -27 91
-10 160 34 138 42 194 45 317 4 131 5 140 39 220 20 46 42 110 51 142 8 33 25
70 37 83 l22 23 51 -50 c28 -27 58 -50 66 -50 8 0 24 -6 34 -14 12 -8 28 -11
44 -7 14 4 39 6 56 5 16 -2 35 2 42 8 9 8 13 7 13 -2 0 -8 4 -9 13 -4 6 5 89
9 182 8 163 -2 171 -1 207 22 21 13 42 24 47 24 21 0 61 24 61 37 0 7 9 22 19
32 11 11 37 59 57 107 29 68 54 105 108 165 39 42 74 78 78 78 4 1 3 -10 -2
-23z m8333 -352 c3 -121 8 -161 26 -214 29 -84 42 -104 110 -170 102 -99 111
-126 65 -182 -64 -77 -148 -160 -173 -169 -13 -5 -146 -12 -295 -14 -300 -6
-361 -10 -424 -32 -24 -8 -46 -13 -48 -11 -2 2 19 22 46 43 28 22 50 43 50 48
0 4 9 17 19 29 11 11 32 45 47 74 30 59 57 89 82 89 11 0 18 10 20 28 2 18 13
32 33 42 16 9 29 20 29 25 0 12 48 60 60 60 14 0 113 109 135 148 11 20 24 40
29 43 5 4 19 27 31 50 34 68 69 133 75 139 12 12 30 51 30 66 0 11 6 15 20 11
17 -4 20 0 20 26 0 17 2 28 5 26 2 -3 6 -72 8 -155z m-2863 -139 c4 -5 26 -65
49 -132 l40 -121 -9 -119 c-24 -295 -32 -336 -72 -382 -66 -75 -227 -219 -254
-225 -15 -4 -73 -15 -129 -26 -115 -20 -168 -44 -230 -101 -41 -38 -45 -39
-67 -26 -36 23 -173 37 -253 26 -83 -11 -314 -25 -338 -21 -9 2 -17 12 -17 22
0 10 -4 22 -10 25 -15 9 -12 22 13 49 12 13 34 24 47 24 59 0 248 21 285 32
22 6 67 18 100 26 33 8 76 19 95 24 19 5 58 14 85 20 105 24 151 42 175 68 14
15 58 54 98 87 39 33 72 66 72 73 0 6 3 12 8 12 4 0 40 30 80 68 l73 67 24 95
c14 52 29 124 35 160 6 36 17 85 24 110 8 25 25 86 38 135 15 59 24 81 26 65
2 -14 8 -29 12 -35z m-2790 -578 c48 -27 147 -133 175 -187 13 -27 27 -82 34
-135 8 -59 19 -99 31 -117 11 -15 20 -30 20 -33 0 -20 85 -85 118 -90 67 -12
68 -15 11 -49 -30 -18 -75 -47 -99 -65 -23 -17 -48 -31 -53 -31 -6 0 -18 -6
-26 -13 -44 -37 -350 -136 -384 -124 -7 2 3 16 23 33 129 109 149 179 115 404
-8 52 -17 144 -20 205 -3 60 -8 138 -10 172 -6 70 -7 70 65 30z m4632 -133
c14 -14 19 -14 40 -1 23 15 108 20 108 7 0 -28 -232 -74 -425 -85 l-100 -5 65
19 c78 22 182 60 192 69 15 14 103 11 120 -4z m-5437 -191 c-29 -71 -55 -163
-55 -192 0 -9 -7 -26 -15 -37 -13 -17 -14 -10 -8 71 5 72 14 110 44 187 22 53
40 113 40 135 1 28 4 20 11 -30 8 -62 7 -73 -17 -134z m7453 148 c1 -4 36 -5
78 -3 42 3 80 0 86 -6 15 -15 -121 -116 -221 -163 l-86 -41 -100 6 c-55 3
-113 8 -130 10 -16 3 -82 5 -145 6 -106 1 -170 12 -170 29 0 4 19 15 43 25 23
9 57 24 75 32 18 8 56 14 85 14 33 0 66 7 90 20 20 11 43 20 51 20 8 0 16 6
19 13 6 17 72 37 123 38 22 1 50 4 64 8 27 9 133 2 138 -8z m-903 -236 c0 -25
-9 -36 -50 -64 l-50 -33 -90 8 c-84 7 -139 8 -209 4 -42 -2 -48 11 -21 47 l25
31 84 -5 c64 -4 94 -2 127 11 48 18 132 35 164 32 15 -1 20 -8 20 -31z m-2560
-112 c45 -7 65 -19 65 -40 0 -18 -52 -12 -141 14 -53 16 -55 18 -35 30 11 6
32 10 46 7 14 -2 43 -7 65 -11z m1774 -35 c-78 -26 -192 -64 -694 -229 -104
-34 -215 -68 -245 -75 -92 -21 -339 -93 -361 -105 -9 -4 -63 -15 -120 -24 -57
-8 -120 -20 -139 -25 -19 -5 -46 -12 -59 -16 -14 -3 -46 -26 -72 -51 -56 -52
-89 -63 -189 -63 -90 0 -125 15 -126 53 -1 33 7 40 76 62 91 30 214 85 223
101 4 8 13 14 20 14 16 1 57 36 57 49 0 6 4 11 9 11 10 0 14 10 25 62 l6 28
59 -30 c32 -17 71 -30 87 -30 16 0 51 -7 78 -15 59 -18 233 -19 316 -3 30 6
69 21 85 33 17 12 39 25 50 28 11 4 33 27 48 51 24 39 36 47 92 65 35 12 80
21 99 21 19 0 61 7 93 15 32 9 114 25 183 35 69 11 136 22 150 25 14 3 75 14
135 25 202 36 241 32 114 -12z m-2711 -304 c26 -5 30 -9 21 -20 -6 -8 -18 -14
-26 -14 -8 0 -28 -7 -45 -16 -29 -15 -179 -47 -186 -39 -2 1 21 17 51 34 29
17 62 40 72 51 19 22 20 22 113 4z m-3090 -85 c27 -5 87 -13 133 -18 l84 -7
-38 -17 c-21 -9 -75 -20 -120 -23 -85 -7 -173 -25 -317 -67 -47 -13 -98 -27
-115 -30 -16 -4 -64 -13 -105 -22 -96 -21 -257 -20 -335 1 -101 27 -137 35
-225 50 -123 21 -140 25 -140 34 0 26 236 36 365 15 211 -33 437 -44 527 -26
55 12 155 64 193 102 23 22 27 23 93 8z"/>
<path d="M11760 5066 c-20 -19 -60 -30 -60 -17 0 14 -61 -7 -80 -28 -8 -9 -25
-25 -38 -36 -20 -16 -25 -17 -34 -5 -8 13 -9 13 -5 0 6 -20 -8 -39 -50 -69
-18 -12 -33 -27 -33 -32 0 -6 -15 -29 -34 -52 -61 -77 -53 -142 23 -193 52
-34 120 -38 191 -12 30 12 62 27 71 35 8 7 25 13 37 13 11 0 24 5 27 10 3 6
33 10 65 10 42 0 76 8 116 25 149 66 204 169 120 227 -17 11 -36 27 -42 34 -6
7 -21 14 -35 16 -13 2 -39 12 -56 21 -18 10 -33 15 -33 12 0 -4 -10 1 -22 9
-12 9 -30 16 -40 16 -10 0 -18 5 -18 11 0 6 -9 8 -21 4 -15 -5 -19 -4 -15 4
10 16 -17 14 -34 -3z"/>
<path d="M11082 4590 c-30 -15 -75 -47 -102 -69 -56 -47 -69 -52 -46 -16 24
36 4 31 -23 -6 -24 -32 -38 -118 -28 -162 8 -30 54 -80 87 -94 47 -21 60 -22
88 -12 56 23 97 28 129 18 25 -8 38 -7 65 7 18 10 41 18 51 18 10 1 48 30 84
66 36 36 62 59 58 51 -5 -9 -3 -12 6 -9 9 3 17 30 23 78 l8 72 -35 36 c-30 30
-43 36 -84 37 -26 1 -60 5 -76 9 -20 5 -29 2 -34 -10 -5 -15 -7 -15 -15 0 -5
10 -21 15 -43 14 -37 -1 -47 -13 -17 -21 11 -3 7 -5 -10 -6 -15 -1 -28 5 -30
13 -2 11 -15 8 -56 -14z"/>
<path d="M10993 4567 c-22 -9 -32 -27 -15 -27 11 1 46 29 41 34 -2 2 -14 -1
-26 -7z"/>
<path d="M10656 4514 c-24 -13 -30 -14 -38 -2 -7 10 -11 10 -15 1 -2 -7 -16
-13 -30 -13 -45 0 -231 -67 -303 -109 -25 -14 -56 -38 -69 -54 -93 -110 -94
-161 -4 -226 65 -47 89 -45 283 27 121 45 149 62 246 160 61 61 81 103 68 140
-5 15 -16 27 -24 27 -8 0 -15 8 -15 18 0 34 -59 52 -99 31z"/>
<path d="M11834 4355 c-7 -18 -31 -20 -36 -3 -3 7 -10 8 -17 4 -11 -7 -11 -10
0 -18 10 -7 6 -8 -12 -4 -18 4 -34 -1 -49 -14 -13 -11 -27 -20 -33 -20 -5 0
-26 -13 -47 -30 -21 -16 -42 -30 -48 -30 -10 0 -64 -57 -95 -100 -28 -40 -49
-66 -42 -53 4 9 1 11 -9 7 -10 -4 -16 -18 -16 -37 0 -17 -9 -40 -19 -51 -38
-41 -92 -232 -122 -426 -15 -102 -33 -205 -39 -230 -6 -25 -14 -112 -19 -194
-6 -128 -10 -150 -26 -162 -32 -23 -48 -18 -41 14 4 15 10 73 13 128 6 111 -3
154 -58 265 -16 32 -29 62 -29 68 0 5 -13 39 -30 76 -29 65 -40 106 -20 75 7
-11 10 -4 10 28 0 23 -5 42 -11 42 -5 0 -8 4 -5 9 7 11 -20 77 -35 87 -8 5 -9
3 -4 -6 9 -14 35 -133 31 -138 -2 -1 -15 28 -31 65 -75 182 -109 254 -123 262
-8 5 -16 19 -17 32 -1 19 -8 24 -31 26 -16 0 -52 4 -80 8 -86 12 -228 -46
-293 -120 -65 -74 -96 -177 -85 -283 10 -91 -51 -504 -87 -601 -6 -13 -12 -45
-15 -70 -3 -25 -12 -98 -20 -161 -11 -80 -17 -249 -21 -560 l-5 -445 30 -66
c17 -36 38 -71 46 -78 9 -8 16 -22 16 -32 0 -10 4 -20 9 -24 6 -3 23 -33 39
-68 19 -40 49 -80 83 -112 30 -27 79 -78 110 -113 79 -89 100 -102 180 -102
56 0 77 5 135 35 103 51 140 90 149 154 8 59 0 86 -53 173 -39 64 -39 68 -33
408 l3 165 23 -50 c13 -27 27 -66 31 -85 10 -54 75 -177 115 -218 37 -39 76
-57 184 -88 48 -13 70 -27 109 -68 153 -158 172 -176 191 -176 12 0 25 -4 31
-10 5 -5 41 -12 80 -15 l69 -4 52 47 c74 68 98 126 114 272 10 94 10 142 1
218 -6 53 -16 162 -22 242 -42 547 -44 717 -11 954 11 78 29 229 41 336 25
237 36 291 66 350 34 67 61 130 73 177 6 23 16 45 21 48 6 3 10 23 10 44 0 22
6 44 15 51 8 7 14 24 14 39 -1 17 -3 20 -6 9 -2 -10 -8 -18 -12 -18 -10 0 -41
67 -41 90 0 22 -16 36 -22 18 -6 -17 -65 20 -72 45 -4 17 -10 19 -47 13 -30
-5 -45 -3 -51 6 -8 10 -11 10 -15 1 -2 -7 -9 -13 -14 -13 -6 0 -7 5 -4 10 3 6
1 10 -5 10 -6 0 -13 -7 -16 -15z"/>
<path d="M12004 4339 c-3 -5 6 -9 20 -9 31 0 34 6 6 13 -11 3 -23 1 -26 -4z"/>
<path d="M10900 4262 c0 -7 6 -15 14 -18 8 -3 12 -12 9 -20 -3 -8 -3 -14 1
-14 3 0 28 -9 57 -20 33 -13 49 -16 47 -8 -2 6 -17 16 -34 21 -16 5 -44 23
-61 40 -18 17 -33 25 -33 19z"/>
<path d="M10220 4060 c0 -5 5 -10 10 -10 6 0 10 5 10 10 0 6 -4 10 -10 10 -5
0 -10 -4 -10 -10z"/>
<path d="M24445 3649 c-4 -6 -5 -12 -2 -15 2 -3 7 2 10 11 7 17 1 20 -8 4z"/>
<path d="M10190 2660 c-7 -22 -10 -43 -7 -46 4 -4 8 -1 10 7 2 8 9 29 15 47 5
17 7 32 3 32 -4 0 -14 -18 -21 -40z"/>
<path d="M24330 2614 c-140 -44 -155 -51 -203 -96 l-50 -46 5 -90 c3 -75 9
-100 34 -149 40 -80 88 -104 194 -98 144 8 215 17 231 31 12 11 18 11 28 1 10
-9 14 -8 22 6 6 9 19 17 29 17 11 0 35 14 54 31 19 16 37 29 40 27 2 -2 8 1
13 6 5 5 3 6 -4 2 -7 -4 -13 -3 -13 3 0 5 7 14 16 19 9 5 20 31 25 57 12 66
-3 118 -44 149 -61 47 -170 108 -216 122 -44 13 -130 17 -161 8z"/>
<path d="M10177 2576 c-4 -9 -3 -26 2 -38 8 -21 8 -21 13 4 6 32 -6 58 -15 34z"/>
<path d="M2782 1623 c-50 -27 -210 -208 -222 -251 -21 -79 -15 -102 46 -159
45 -42 61 -52 78 -47 11 4 30 8 42 10 12 1 36 10 55 20 35 18 118 42 177 51
19 3 45 16 59 29 14 13 29 21 34 18 12 -7 41 99 41 149 0 52 -13 86 -42 112
-12 11 -23 18 -24 16 -2 -7 -115 50 -122 60 -9 15 -88 10 -122 -8z"/>
<path d="M15636 1312 c-11 -19 35 -25 52 -8 15 15 15 16 0 16 -9 0 -20 -5 -24
-11 -5 -8 -9 -8 -14 1 -5 8 -10 9 -14 2z"/>
</g>
</svg>
